
        <svg xmlns="http://www.w3.org/2000/svg" xmlns:xlink="http://www.w3.org/1999/xlink" version="1.1" width="3187.5" 
        height="1110.4486014294619" viewBox="0 0 3187.5 1110.4486014294619">
			
			<g transform="scale(9.375) translate(10, 10)">
				<defs id="SvgjsDefs1141"></defs><g id="SvgjsG1142" featureKey="4K7G0D-0" transform="matrix(0.7934513146622384,0,0,0.7934513146622384,-1.8917353502803764e-7,-0.8129163255489483)" fill="#ffe98a"><g xmlns="http://www.w3.org/2000/svg"><path d="M124.4,46.3L105,36.4c-7.1-3.6-14.8-6-22.7-7c-1.6-0.2-3.1,1-3.3,2.6c-0.2,1.6,1,3.1,2.6,3.3c7.2,0.9,14.2,3,20.7,6.3   l19.4,9.9c0.4,0.2,0.9,0.3,1.4,0.3c1.1,0,2.1-0.6,2.7-1.6C126.4,48.9,125.8,47.1,124.4,46.3z"></path><path d="M89.2,114c-1.2-1.2-3.1-1.2-4.2,0c-1.2,1.2-1.2,3.1,0,4.2l6,6c0.6,0.6,1.4,0.9,2.1,0.9s1.5-0.3,2.1-0.9   c1.2-1.2,1.2-3.1,0-4.2L89.2,114z"></path><path d="M87.1,83.1c-1.7,0-3,1.3-3,3c0,7.2-2.8,14-7.9,19.1s-11.9,7.9-19,7.9l0,0L16.5,113l-9.6-12.8C6.3,99.4,6,98.5,6,97.5   c0-1.3,0.6-2.6,1.6-3.4l2.2-1.8l0.1-0.1l20-18c0.6-0.6,1-1.4,1-2.2v-8.7l11.8-11.4c1.2-1.1,1.2-3,0.1-4.2c-1.1-1.2-3-1.2-4.2-0.1   L25.9,59.8C25.3,60.4,25,61.2,25,62v8.7l-18.9,17l-2.2,1.7c-2.5,2-3.9,4.9-3.9,8.1c0,2.2,0.7,4.4,2.1,6.2l10.5,14   c0.6,0.8,1.5,1.2,2.4,1.2l42.1,0.1c0,0,0,0,0.1,0c8.8,0,17.1-3.4,23.3-9.6c6.2-6.2,9.7-14.5,9.7-23.3   C90.1,84.5,88.8,83.1,87.1,83.1z"></path><path d="M44.3,67.5l-6,4c-1.4,0.9-1.8,2.8-0.8,4.2C38.1,76.5,39,77,40,77c0.6,0,1.1-0.2,1.7-0.5l6-4c1.4-0.9,1.8-2.8,0.8-4.2   C47.6,67,45.7,66.6,44.3,67.5z"></path><path d="M13.2,6.4L48.9,33c1,0.7,1.4,2,1.1,3.2l-2.6,9.9c-0.4,1.6,0.5,3.2,2.1,3.7c1.6,0.4,3.2-0.5,3.7-2.1l2.6-9.9   c1-3.6-0.3-7.3-3.3-9.5L32.7,13.4l30,10.6c2.3,0.8,4,2.8,4.5,5.2l3,14.1c-1.7,2.5-4.3,4.2-7.3,4.7c-1.6,0.3-2.7,1.8-2.5,3.5   c0.2,1.5,1.5,2.5,3,2.5c0.2,0,0.3,0,0.5,0c4.6-0.8,8.8-3.5,11.4-7.4l0.6-0.9c0.4-0.7,0.6-1.5,0.4-2.3l-3.2-15.3   c-0.9-4.4-4.2-8.1-8.4-9.6L16,1.2c-1.4-0.5-2.9,0.1-3.6,1.4C11.7,3.9,12,5.5,13.2,6.4z"></path></g></g><g id="SvgjsG1143" featureKey="wPuqcM-0" transform="matrix(2.48632513587606,0,0,2.48632513587606,117.0164091256054,3.4301355573782804)" fill="#ffffff"><path d="M8.92 12.24 c1.48 0.4 2.88 1.72 2.88 3.66 c0 2.54 -1.6 4.1 -5.08 4.1 l-5.52 0 l0 -14 l5.22 0 c2.9 0 4.36 1.64 4.36 3.52 c0 1.48 -0.96 2.32 -1.86 2.72 z M6.14 8.56 l-2.02 0 l0 2.82 l2.02 0 c1.24 0 1.74 -0.58 1.74 -1.42 c0 -0.9 -0.58 -1.4 -1.74 -1.4 z M6.56 17.44 c1.6 0 2.32 -0.66 2.32 -1.9 c0 -1.06 -0.72 -1.8 -2.44 -1.8 l-2.32 0 l0 3.7 l2.44 0 z M17.34 20.16 c-1.98 0 -3.94 -1.3 -3.94 -4.58 l0 -5.98 l2.86 0 l0 5.78 c0 1.7 0.66 2.28 1.76 2.28 c1.52 0 2.42 -1.44 2.64 -2.16 l0 -5.9 l2.86 0 l0 10.4 l-2.86 0 l0 -1.92 c-0.2 0.54 -1.32 2.08 -3.32 2.08 z M28.46 5.859999999999999 l0 14.14 l-2.86 0 l0 -14.14 l2.86 0 z M33.400000000000006 5.859999999999999 l0 14.14 l-2.86 0 l0 -14.14 l2.86 0 z M38.56 17.32 l5.5 0 l0 2.68 l-8.42 0 l0 -14 l2.92 0 l0 11.32 z M48.760000000000005 5.859999999999999 l0 2.44 l-2.86 0 l0 -2.44 l2.86 0 z M48.760000000000005 9.6 l0 10.4 l-2.86 0 l0 -10.4 l2.86 0 z M58.52 9.6 l2.86 0 l0 10.4 c0 3.16 -3.1 4.12 -5.36 4.12 c-1.2 0 -2.2 -0.24 -2.82 -0.58 l0 -2.34 c0.62 0.34 1.58 0.54 2.82 0.54 c1.84 0 2.5 -0.98 2.5 -1.74 l0 -1.28 c-0.06 0.42 -1.08 1.48 -2.88 1.48 c-2.38 0 -5.14 -1.72 -5.14 -5.42 c0 -3.58 2.76 -5.36 5.14 -5.36 c1.8 0 2.82 1.12 2.88 1.34 l0 -1.16 z M56.040000000000006 17.66 c1.4 0 2.62 -0.96 2.62 -2.88 c0 -1.86 -1.22 -2.82 -2.62 -2.82 c-1.44 0 -2.76 0.98 -2.76 2.82 c0 1.9 1.32 2.88 2.76 2.88 z M69.64 9.44 c1.98 0 3.94 1.3 3.94 4.58 l0 5.98 l-2.86 0 l0 -5.78 c0 -1.7 -0.66 -2.28 -1.76 -2.28 c-1.52 0 -2.42 1.44 -2.64 2.16 l0 5.9 l-2.86 0 l0 -14.14 l2.86 0 l0 5.66 c0.2 -0.54 1.32 -2.08 3.32 -2.08 z M80.26 17.6 c0.54 0 0.94 -0.06 1.38 -0.22 l0 2.4 c-0.44 0.2 -1.12 0.34 -2.12 0.34 c-1.62 0 -2.98 -0.56 -2.98 -3.5 l0 -4.66 l-1.46 0 l0 -2.36 l1.46 0 l0 -2.44 l2.86 0 l0 2.44 l2.22 0 l0 2.36 l-2.22 0 l0 4.64 c0 0.48 0.14 1 0.86 1 z"></path></g><g id="SvgjsG1144" featureKey="Li3fkV-0" transform="matrix(0.5211251352168285,0,0,0.5211251352168285,119.92704267489327,70.14423499454759)" fill="#ffffff"><path d="M7.7 5.84 l0 10.14 q0 2.3 -0.98 3.34 t-2.9 1.04 q-1.46 0 -2.41 -0.76 t-1.27 -2.14 l1.32 -0.24 q0.48 1.94 2.36 1.94 q1.32 0 1.94 -0.8 t0.62 -2.12 l0 -10.4 l1.32 0 z M26.864000000000004 5.84 l0 8.5 q0 2.3 0.95 3.54 t2.89 1.28 q3.8 0 3.84 -5.02 l0 -8.3 l1.32 0 l0 8.64 q0 2.78 -1.3 4.32 t-3.86 1.56 q-2.52 0 -3.83 -1.53 t-1.33 -4.25 l0 -8.74 l1.32 0 z M57.748000000000005 5.48 q2.46 0 3.86 1.78 l-1.14 0.82 q-1.04 -1.4 -2.76 -1.4 q-1.4 0 -2.27 0.72 t-0.91 1.96 q0 1.08 0.66 1.75 t2.3 1.13 q2.16 0.64 2.88 1.13 t1.09 1.21 t0.37 1.8 q0 1.72 -1.23 2.83 t-3.17 1.15 q-3.06 0 -4.6 -2.14 l1.26 -0.84 q1.06 1.76 3.24 1.78 q1.42 0 2.3 -0.79 t0.88 -1.99 q0 -0.7 -0.25 -1.15 t-0.76 -0.78 t-1.3 -0.6 t-1.85 -0.63 q-1.6 -0.52 -2.37 -1.46 t-0.77 -2.4 q0 -1.72 1.29 -2.8 t3.25 -1.08 z M88.352 5.84 l0 1.2 l-4.84 0 l0 12.96 l-1.32 0 l0 -12.96 l-4.84 0 l0 -1.2 l11 0 z M133.48000000000002 5.84 l0 1.2 l-4.84 0 l0 12.96 l-1.32 0 l0 -12.96 l-4.84 0 l0 -1.2 l11 0 z M154.104 12.08 q1.54 0 2.38 -0.69 t0.84 -1.83 t-0.82 -1.82 t-2.44 -0.7 l-2.86 0 l0 5.04 l2.9 0 z M153.704 5.84 q4.9 0 4.94 3.72 q0 3.14 -3.62 3.64 l4.12 6.8 l-1.5 0 l-3.98 -6.72 l-2.46 0 l0 6.72 l-1.32 0 l0 -14.16 l3.82 0 z M177.62800000000001 15.04 l6.5 0 l-3.2 -7.76 z M181.668 5.84 l5.96 14.16 l-1.48 0 l-1.54 -3.76 l-7.5 0 l-1.6 3.76 l-1.38 0 l6.18 -14.16 l1.36 0 z M207.85200000000003 18.8 q3.04 0 4.8 -1.54 t1.78 -4.24 q0 -2.88 -1.75 -4.42 t-4.89 -1.56 l-2.76 0 l0 11.76 l2.82 0 z M208.13200000000003 5.84 q3.56 0 5.57 1.92 t2.05 5.26 q0 1.96 -0.89 3.55 t-2.56 2.51 t-4.09 0.92 l-4.5 0 l0 -14.16 l4.42 0 z M241.59600000000003 5.84 l0 1.2 l-7.34 0 l0 5.04 l6.88 0 l0 1.2 l-6.88 0 l0 5.52 l7.66 0 l0 1.2 l-8.98 0 l0 -14.16 l8.66 0 z M279.764 5.84 l0 14.16 l-1.32 0 l0 -14.16 l1.32 0 z M307.168 5.84 l0 1.2 l-4.84 0 l0 12.96 l-1.32 0 l0 -12.96 l-4.84 0 l0 -1.2 l11 0 z"></path></g>
			</g>
		</svg>
	